<?xml version="1.0" encoding="utf-8"?>
<!-- Generator: Adobe Illustrator 27.5.0, SVG Export Plug-In . SVG Version: 6.00 Build 0)  -->
<svg version="1.1" xmlns="http://www.w3.org/2000/svg" xmlns:xlink="http://www.w3.org/1999/xlink" x="0px" y="0px"
	 viewBox="0 0 500 500" style="enable-background:new 0 0 500 500;" xml:space="preserve">
<g id="Floor">
	<ellipse id="Floor_6_" style="fill:#F5F5F5;" cx="248.058" cy="353.242" rx="227.467" ry="131.328"/>
</g>
<g id="Shadow">
	<ellipse id="Shadow_2_" style="fill:#E0E0E0;" cx="115.102" cy="386.771" rx="70.545" ry="40.729"/>
</g>
<g id="Speech_bubble_2">
	<g id="Speech_Bubble_3_">
		<g id="Speech_Bubble_5_">
			<g>
				<polygon style="fill:#27DEBF;" points="240.868,416.607 232.743,411.917 232.743,341.56 378.976,257.132 387.1,261.823 
					387.101,332.179 				"/>
				<polygon style="opacity:0.2;" points="240.868,416.607 232.743,411.917 232.743,341.56 378.976,257.132 387.1,261.823 
					387.101,332.179 				"/>
				<polygon style="fill:#27DEBF;" points="240.867,346.25 387.1,261.823 387.101,332.179 240.868,416.607 				"/>
			</g>
			<g>
				<g>
					<path style="fill:#27DEBF;" d="M322.108,299.346l-8.125-4.691c0,0-6.333,0-14.057-3.354c-2.134-1.583-4.249-3.47-6.254-5.738
						c-12.374-13.994,0-40.158,0-40.158l-6.571-3.794c-25.385,22.867-34.051,51.736-17.802,78.84l8.125,4.691L322.108,299.346z"/>
					<path style="opacity:0.2;" d="M322.108,299.346l-8.125-4.691c0,0-6.333,0-14.057-3.354c-2.134-1.583-4.249-3.47-6.254-5.738
						c-12.374-13.994,0-40.158,0-40.158l-6.571-3.794c-25.385,22.867-34.051,51.736-17.802,78.84l8.125,4.691L322.108,299.346z"/>
				</g>
				<path style="fill:#27DEBF;" d="M277.425,325.143c-16.249-27.104-9.138-56.87,16.248-79.737c0,0-12.375,26.164-0.001,40.158
					c12.187,13.782,28.436,13.782,28.436,13.782L277.425,325.143z"/>
			</g>
		</g>
		<g>
			<g>
				<path style="fill:#455A64;" d="M289.808,359.762c0.731-0.423,1.39-0.675,1.972-0.756c0.584-0.082,1.081,0.017,1.493,0.3
					c0.412,0.282,0.729,0.745,0.951,1.392c0.224,0.646,0.335,1.478,0.335,2.5c0,1.039-0.111,2.01-0.335,2.912
					c-0.222,0.904-0.539,1.73-0.951,2.478c-0.412,0.749-0.909,1.423-1.493,2.024c-0.582,0.601-1.24,1.112-1.972,1.535l-2.195,1.268
					v5.387c0,0.193-0.046,0.387-0.138,0.58c-0.091,0.193-0.2,0.327-0.325,0.399l-2.247,1.298c-0.126,0.072-0.234,0.064-0.326-0.023
					s-0.137-0.229-0.137-0.423v-17.059c0-0.193,0.045-0.386,0.137-0.581c0.092-0.193,0.2-0.326,0.326-0.398L289.808,359.762z
					 M287.613,369.295l2.109-1.219c0.48-0.277,0.877-0.67,1.192-1.178c0.314-0.506,0.472-1.131,0.472-1.869
					c0-0.74-0.157-1.182-0.472-1.326c-0.315-0.143-0.712-0.077-1.192,0.2l-2.109,1.218V369.295z"/>
				<path style="fill:#455A64;" d="M304.61,365.475c0.125-0.072,0.234-0.064,0.326,0.023c0.091,0.088,0.137,0.229,0.137,0.423v2.799
					c0,0.193-0.046,0.388-0.137,0.581c-0.092,0.193-0.201,0.326-0.326,0.398l-7.941,4.586c-0.126,0.072-0.234,0.064-0.325-0.023
					c-0.093-0.088-0.138-0.229-0.138-0.423V356.78c0-0.193,0.045-0.386,0.138-0.581c0.091-0.193,0.199-0.326,0.325-0.398
					l2.247-1.298c0.125-0.072,0.234-0.065,0.326,0.022c0.091,0.09,0.137,0.23,0.137,0.424v13.547L304.61,365.475z"/>
				<path style="fill:#455A64;" d="M315.141,359.395c0.126-0.072,0.234-0.064,0.325,0.023c0.092,0.088,0.138,0.229,0.138,0.423
					v2.799c0,0.193-0.046,0.388-0.138,0.581c-0.091,0.193-0.199,0.326-0.325,0.398l-8.13,4.694
					c-0.126,0.073-0.234,0.065-0.326-0.022s-0.137-0.23-0.137-0.424v-17.059c0-0.193,0.045-0.386,0.137-0.58
					c0.092-0.193,0.2-0.326,0.326-0.399l7.993-4.614c0.125-0.072,0.234-0.065,0.325,0.022c0.092,0.089,0.137,0.23,0.137,0.423v2.799
					c0,0.194-0.045,0.388-0.137,0.581c-0.091,0.194-0.2,0.327-0.325,0.4l-5.283,3.05v2.853l4.905-2.832
					c0.126-0.072,0.233-0.065,0.326,0.022c0.091,0.089,0.137,0.229,0.137,0.423v2.799c0,0.194-0.046,0.388-0.137,0.581
					c-0.093,0.194-0.2,0.327-0.326,0.399l-4.905,2.832v2.958L315.141,359.395z"/>
				<path style="fill:#455A64;" d="M323.922,340.066c0.229-0.132,0.403-0.136,0.523-0.013c0.12,0.125,0.203,0.272,0.249,0.438
					l3.738,14.479c0.046,0.149,0.068,0.268,0.068,0.355c0,0.158-0.037,0.316-0.111,0.475c-0.074,0.158-0.163,0.266-0.266,0.324
					l-2.16,1.248c-0.229,0.133-0.393,0.152-0.489,0.058c-0.098-0.093-0.157-0.204-0.18-0.331l-0.48-1.914l-4.563,2.634l-0.48,2.469
					c-0.023,0.153-0.082,0.334-0.179,0.539c-0.099,0.207-0.261,0.375-0.489,0.507l-2.161,1.248
					c-0.103,0.059-0.191,0.054-0.266-0.019c-0.074-0.071-0.112-0.186-0.112-0.345c0-0.088,0.023-0.232,0.069-0.436l3.738-18.795
					c0.046-0.22,0.129-0.461,0.249-0.725c0.12-0.263,0.294-0.46,0.523-0.592L323.922,340.066z M321.144,353.209l2.778-1.604
					l-1.389-5.535L321.144,353.209z"/>
				<path style="fill:#455A64;" d="M334.127,333.91c0.732-0.423,1.404-0.648,2.016-0.676c0.611-0.027,1.141,0.086,1.587,0.338
					c0.445,0.254,0.795,0.615,1.046,1.086c0.252,0.471,0.383,0.985,0.395,1.541c0,0.159-0.037,0.317-0.111,0.475
					c-0.074,0.157-0.157,0.262-0.248,0.314l-2.248,1.297c-0.159,0.093-0.288,0.132-0.385,0.117
					c-0.098-0.014-0.197-0.061-0.301-0.142c-0.034-0.033-0.089-0.09-0.163-0.17c-0.074-0.08-0.18-0.147-0.317-0.2
					c-0.137-0.053-0.309-0.067-0.514-0.046c-0.207,0.022-0.458,0.119-0.756,0.291c-0.217,0.125-0.425,0.267-0.626,0.428
					c-0.2,0.159-0.377,0.332-0.53,0.518c-0.155,0.186-0.281,0.395-0.379,0.627c-0.097,0.232-0.145,0.48-0.145,0.744
					c0,0.264,0.054,0.453,0.163,0.566c0.108,0.113,0.291,0.17,0.549,0.171c0.257,0.002,0.597-0.05,1.02-0.153
					c0.423-0.103,0.949-0.239,1.578-0.409c0.629-0.169,1.178-0.239,1.646-0.212c0.469,0.029,0.86,0.178,1.175,0.445
					c0.315,0.267,0.549,0.66,0.704,1.178c0.153,0.519,0.23,1.191,0.23,2.02c0,0.897-0.131,1.775-0.394,2.629
					c-0.264,0.858-0.632,1.673-1.106,2.449c-0.475,0.774-1.035,1.48-1.682,2.119c-0.646,0.637-1.353,1.176-2.117,1.617
					c-0.778,0.449-1.487,0.701-2.127,0.754c-0.641,0.053-1.192-0.047-1.655-0.299c-0.463-0.252-0.826-0.628-1.09-1.127
					c-0.263-0.5-0.399-1.081-0.411-1.744c0-0.158,0.037-0.315,0.111-0.473c0.074-0.157,0.157-0.263,0.248-0.315l2.248-1.298
					c0.159-0.092,0.285-0.133,0.377-0.125c0.091,0.01,0.183,0.049,0.274,0.119c0.046,0.044,0.114,0.119,0.206,0.225
					c0.091,0.105,0.215,0.197,0.368,0.275c0.155,0.078,0.349,0.111,0.584,0.1c0.234-0.013,0.522-0.117,0.866-0.316
					c0.605-0.35,1.111-0.743,1.517-1.18c0.405-0.436,0.609-0.919,0.609-1.447c0-0.265-0.075-0.441-0.224-0.531
					c-0.148-0.09-0.372-0.124-0.669-0.102c-0.298,0.021-0.678,0.096-1.141,0.222c-0.463,0.126-1.009,0.267-1.638,0.418
					c-1.178,0.292-2.039,0.143-2.582-0.45c-0.543-0.594-0.814-1.646-0.814-3.161c0-0.757,0.111-1.543,0.335-2.358
					c0.223-0.814,0.546-1.609,0.969-2.381c0.423-0.773,0.936-1.486,1.535-2.141C332.712,334.881,333.384,334.339,334.127,333.91z"/>
				<path style="fill:#455A64;" d="M349.822,339.372c0.126-0.073,0.234-0.066,0.326,0.022c0.091,0.088,0.137,0.23,0.137,0.424v2.799
					c0,0.193-0.046,0.387-0.137,0.58c-0.092,0.193-0.2,0.326-0.326,0.399l-8.13,4.694c-0.126,0.072-0.234,0.065-0.325-0.023
					c-0.093-0.088-0.138-0.229-0.138-0.423v-17.059c0-0.193,0.045-0.386,0.138-0.581c0.091-0.193,0.199-0.326,0.325-0.398
					l7.993-4.615c0.125-0.072,0.234-0.064,0.325,0.023c0.092,0.088,0.138,0.229,0.138,0.422v2.799c0,0.195-0.046,0.389-0.138,0.582
					c-0.091,0.193-0.2,0.326-0.325,0.398l-5.283,3.051v2.852l4.905-2.832c0.126-0.072,0.234-0.064,0.326,0.023
					c0.092,0.088,0.137,0.228,0.137,0.422v2.799c0,0.195-0.045,0.389-0.137,0.582c-0.092,0.193-0.2,0.326-0.326,0.398l-4.905,2.832
					v2.959L349.822,339.372z"/>
				<path style="fill:#455A64;" d="M355.19,334.108c0,0.193-0.046,0.387-0.137,0.58c-0.092,0.195-0.2,0.326-0.326,0.399l-2.16,1.247
					c-0.127,0.073-0.235,0.066-0.327-0.021c-0.091-0.088-0.137-0.229-0.137-0.424v-11.381c0-0.193,0.046-0.387,0.137-0.58
					c0.092-0.193,0.2-0.327,0.327-0.4l2.16-1.247c0.126-0.073,0.234-0.065,0.326,0.022c0.091,0.09,0.137,0.23,0.137,0.424V334.108z
					 M355.19,339.785c0,0.193-0.046,0.387-0.137,0.58c-0.092,0.193-0.2,0.326-0.326,0.4l-2.16,1.247
					c-0.127,0.073-0.235,0.066-0.327-0.022c-0.091-0.088-0.137-0.23-0.137-0.424v-2.666c0-0.193,0.046-0.387,0.137-0.582
					c0.092-0.193,0.2-0.326,0.327-0.398l2.16-1.248c0.126-0.072,0.234-0.064,0.326,0.023c0.091,0.088,0.137,0.229,0.137,0.422
					V339.785z"/>
				<path style="fill:#455A64;" d="M360.368,331.117c0,0.193-0.045,0.387-0.137,0.58c-0.091,0.195-0.199,0.326-0.325,0.399
					l-2.161,1.247c-0.126,0.073-0.235,0.066-0.326-0.021c-0.092-0.088-0.138-0.229-0.138-0.424v-11.381
					c0-0.193,0.046-0.387,0.138-0.58c0.091-0.193,0.2-0.327,0.326-0.4l2.161-1.247c0.126-0.073,0.234-0.065,0.325,0.023
					c0.092,0.09,0.137,0.23,0.137,0.424V331.117z M360.368,336.795c0,0.193-0.045,0.387-0.137,0.58
					c-0.091,0.193-0.199,0.326-0.325,0.399l-2.161,1.247c-0.126,0.073-0.235,0.066-0.326-0.021c-0.092-0.088-0.138-0.23-0.138-0.424
					v-2.666c0-0.193,0.046-0.387,0.138-0.582c0.091-0.193,0.2-0.326,0.326-0.398l2.161-1.248c0.126-0.072,0.234-0.064,0.325,0.023
					c0.092,0.088,0.137,0.229,0.137,0.422V336.795z"/>
				<path style="fill:#455A64;" d="M365.548,328.127c0,0.193-0.046,0.387-0.137,0.58c-0.092,0.195-0.2,0.326-0.326,0.399
					l-2.16,1.247c-0.126,0.073-0.235,0.066-0.327-0.021c-0.091-0.088-0.137-0.229-0.137-0.424v-11.381
					c0-0.193,0.046-0.387,0.137-0.58c0.092-0.193,0.201-0.327,0.327-0.4l2.16-1.247c0.126-0.073,0.234-0.065,0.326,0.023
					c0.091,0.09,0.137,0.23,0.137,0.424V328.127z M365.548,333.805c0,0.193-0.046,0.387-0.137,0.58
					c-0.092,0.193-0.2,0.326-0.326,0.399l-2.16,1.247c-0.126,0.073-0.235,0.066-0.327-0.021c-0.091-0.088-0.137-0.23-0.137-0.424
					v-2.666c0-0.193,0.046-0.387,0.137-0.582c0.092-0.193,0.201-0.326,0.327-0.398l2.16-1.248c0.126-0.072,0.234-0.064,0.326,0.023
					c0.091,0.088,0.137,0.229,0.137,0.422V333.805z"/>
			</g>
			<g>
				<path style="fill:#455A64;" d="M277.178,339.16c0.253-0.147,0.446-0.15,0.58-0.014c0.133,0.139,0.225,0.301,0.275,0.486
					l4.145,16.053c0.051,0.166,0.076,0.299,0.076,0.395c0,0.176-0.041,0.352-0.123,0.525c-0.083,0.176-0.181,0.295-0.295,0.361
					l-2.396,1.383c-0.254,0.147-0.435,0.168-0.542,0.065c-0.108-0.103-0.174-0.226-0.199-0.368l-0.533-2.122l-5.06,2.921
					l-0.531,2.737c-0.026,0.172-0.093,0.371-0.201,0.599c-0.107,0.227-0.288,0.415-0.541,0.561l-2.397,1.384
					c-0.114,0.065-0.212,0.06-0.294-0.02c-0.083-0.079-0.125-0.207-0.125-0.383c0-0.096,0.025-0.258,0.076-0.483l4.147-20.841
					c0.05-0.243,0.143-0.512,0.276-0.804c0.133-0.291,0.326-0.511,0.58-0.657L277.178,339.16z M274.097,353.735l3.081-1.779
					l-1.541-6.137L274.097,353.735z"/>
				<path style="fill:#455A64;" d="M292.241,330.463c0.14-0.08,0.26-0.071,0.36,0.026c0.102,0.098,0.152,0.254,0.152,0.469v3.104
					c0,0.215-0.051,0.43-0.152,0.645c-0.101,0.215-0.221,0.362-0.36,0.442l-3.348,1.934v15.02c0,0.217-0.051,0.43-0.152,0.645
					c-0.102,0.215-0.222,0.363-0.361,0.443l-2.491,1.438c-0.14,0.081-0.26,0.071-0.361-0.026c-0.102-0.098-0.152-0.252-0.152-0.469
					v-15.02l-3.348,1.932c-0.139,0.081-0.26,0.072-0.36-0.025c-0.102-0.098-0.152-0.254-0.152-0.469v-3.103
					c0-0.215,0.05-0.43,0.152-0.645c0.101-0.215,0.222-0.362,0.36-0.443L292.241,330.463z"/>
				<path style="fill:#455A64;" d="M304.241,323.535c0.14-0.081,0.259-0.072,0.36,0.025c0.102,0.098,0.152,0.254,0.152,0.469v3.103
					c0,0.215-0.051,0.43-0.152,0.645c-0.102,0.215-0.221,0.362-0.36,0.443l-3.348,1.932v15.022c0,0.215-0.051,0.43-0.152,0.645
					c-0.102,0.215-0.222,0.361-0.361,0.442l-2.491,1.439c-0.14,0.08-0.26,0.072-0.361-0.025c-0.102-0.098-0.152-0.254-0.152-0.469
					v-15.021l-3.348,1.934c-0.139,0.08-0.26,0.072-0.36-0.026c-0.103-0.097-0.152-0.254-0.152-0.469v-3.104
					c0-0.215,0.05-0.429,0.152-0.645c0.101-0.214,0.222-0.362,0.36-0.442L304.241,323.535z"/>
				<path style="fill:#455A64;" d="M315.995,332.561c0.139-0.08,0.26-0.071,0.361,0.025c0.101,0.099,0.151,0.254,0.151,0.469v3.103
					c0,0.216-0.051,0.43-0.151,0.645c-0.102,0.215-0.223,0.363-0.361,0.443l-9.016,5.205c-0.14,0.08-0.26,0.071-0.361-0.026
					c-0.102-0.098-0.152-0.253-0.152-0.469v-18.915c0-0.215,0.051-0.43,0.152-0.645c0.102-0.215,0.222-0.362,0.361-0.443
					l8.863-5.117c0.14-0.08,0.26-0.071,0.361,0.026c0.102,0.098,0.152,0.254,0.152,0.469v3.104c0,0.215-0.051,0.43-0.152,0.645
					c-0.102,0.215-0.222,0.362-0.361,0.442l-5.858,3.383v3.162l5.439-3.141c0.14-0.08,0.26-0.072,0.361,0.025
					c0.102,0.098,0.152,0.254,0.152,0.469v3.103c0,0.215-0.051,0.43-0.152,0.645c-0.102,0.215-0.222,0.361-0.361,0.442l-5.439,3.141
					v3.28L315.995,332.561z"/>
				<path style="fill:#455A64;" d="M327.349,330.691c-0.216,0.124-0.39,0.138-0.522,0.038c-0.134-0.099-0.219-0.185-0.257-0.262
					l-4.355-7.499v9.897c0,0.216-0.051,0.43-0.151,0.643c-0.103,0.216-0.223,0.363-0.362,0.443l-2.491,1.439
					c-0.14,0.08-0.26,0.071-0.361-0.026c-0.102-0.098-0.152-0.253-0.152-0.469v-18.915c0-0.215,0.051-0.43,0.152-0.645
					c0.102-0.215,0.222-0.362,0.361-0.443l1.978-1.142c0.216-0.124,0.391-0.138,0.523-0.038c0.133,0.099,0.219,0.185,0.257,0.262
					l4.355,7.499v-9.896c0-0.215,0.051-0.43,0.152-0.645c0.102-0.215,0.222-0.362,0.36-0.442l2.492-1.439
					c0.14-0.08,0.26-0.071,0.361,0.026c0.102,0.098,0.151,0.254,0.151,0.469v18.915c0,0.216-0.05,0.43-0.151,0.645
					c-0.102,0.215-0.222,0.362-0.361,0.443L327.349,330.691z"/>
				<path style="fill:#455A64;" d="M342.279,301.574c0.14-0.081,0.26-0.072,0.361,0.025c0.102,0.098,0.152,0.254,0.152,0.469v3.103
					c0,0.215-0.051,0.43-0.152,0.645c-0.102,0.215-0.222,0.362-0.361,0.443l-3.348,1.932v15.022c0,0.215-0.051,0.43-0.151,0.645
					c-0.102,0.215-0.222,0.361-0.361,0.442l-2.492,1.439c-0.139,0.08-0.259,0.072-0.36-0.025c-0.102-0.098-0.152-0.254-0.152-0.469
					v-15.021l-3.348,1.934c-0.14,0.08-0.261,0.072-0.361-0.026c-0.103-0.097-0.152-0.254-0.152-0.469v-3.103
					c0-0.215,0.05-0.429,0.152-0.645c0.101-0.214,0.222-0.362,0.361-0.442L342.279,301.574z"/>
				<path style="fill:#455A64;" d="M345.017,320.49c-0.139,0.08-0.259,0.071-0.36-0.026c-0.102-0.098-0.152-0.253-0.152-0.469
					V301.08c0-0.215,0.051-0.43,0.152-0.645c0.102-0.215,0.222-0.362,0.36-0.443l2.492-1.438c0.14-0.081,0.26-0.072,0.361,0.025
					c0.101,0.098,0.151,0.254,0.151,0.469v18.915c0,0.216-0.051,0.43-0.151,0.643c-0.102,0.216-0.222,0.363-0.361,0.443
					L345.017,320.49z"/>
				<path style="fill:#455A64;" d="M350.248,304.615c0.038-1.115,0.192-2.234,0.466-3.357c0.272-1.125,0.659-2.186,1.16-3.189
					c0.501-1,1.109-1.918,1.826-2.752c0.716-0.833,1.543-1.521,2.481-2.063c0.925-0.534,1.75-0.801,2.473-0.798
					c0.723,0.003,1.334,0.216,1.835,0.639c0.501,0.424,0.888,1.04,1.16,1.849c0.273,0.809,0.428,1.75,0.466,2.82
					c0.025,0.825,0.038,1.695,0.038,2.613c0,0.918-0.013,1.784-0.038,2.599c-0.038,1.116-0.193,2.234-0.466,3.358
					c-0.272,1.123-0.659,2.191-1.16,3.202c-0.501,1.013-1.112,1.931-1.835,2.758c-0.723,0.827-1.548,1.509-2.473,2.043
					c-0.938,0.542-1.766,0.815-2.481,0.817c-0.717,0.004-1.325-0.211-1.826-0.645c-0.501-0.432-0.888-1.053-1.16-1.863
					c-0.273-0.808-0.428-1.748-0.466-2.819c-0.025-0.785-0.038-1.638-0.038-2.554C350.21,306.356,350.223,305.47,350.248,304.615z
					 M358.597,304.861c0.013-0.358,0.025-0.756,0.038-1.192c0.013-0.438,0.02-0.88,0.02-1.329c0-0.449-0.007-0.88-0.02-1.292
					c-0.013-0.412-0.025-0.781-0.038-1.105c-0.025-0.473-0.092-0.885-0.199-1.231c-0.108-0.348-0.26-0.616-0.457-0.806
					c-0.196-0.189-0.44-0.287-0.731-0.295c-0.293-0.006-0.634,0.104-1.027,0.33c-0.393,0.227-0.735,0.512-1.027,0.856
					c-0.291,0.345-0.536,0.725-0.732,1.14c-0.197,0.416-0.349,0.86-0.457,1.333c-0.107,0.472-0.175,0.96-0.2,1.462
					c-0.025,0.347-0.041,0.732-0.047,1.154c-0.007,0.424-0.01,0.859-0.01,1.309c0,0.449,0.003,0.887,0.01,1.313
					c0.006,0.426,0.022,0.807,0.047,1.143c0.051,0.947,0.271,1.63,0.657,2.052c0.386,0.422,0.972,0.404,1.759-0.05
					c0.786-0.454,1.369-1.112,1.75-1.976C358.312,306.811,358.534,305.873,358.597,304.861z"/>
				<path style="fill:#455A64;" d="M372.994,304.338c-0.216,0.124-0.391,0.137-0.523,0.037c-0.133-0.098-0.219-0.185-0.257-0.262
					l-4.355-7.498v9.897c0,0.215-0.051,0.43-0.151,0.644c-0.103,0.216-0.223,0.362-0.362,0.443l-2.491,1.439
					c-0.14,0.08-0.26,0.072-0.361-0.025c-0.102-0.098-0.152-0.254-0.152-0.469v-18.916c0-0.215,0.051-0.43,0.152-0.645
					c0.102-0.215,0.222-0.361,0.361-0.442l1.979-1.142c0.216-0.125,0.39-0.138,0.523-0.039c0.133,0.1,0.218,0.187,0.256,0.262
					l4.355,7.5v-9.897c0-0.215,0.051-0.43,0.152-0.645c0.102-0.215,0.222-0.363,0.361-0.443l2.491-1.439
					c0.14-0.081,0.26-0.071,0.361,0.026c0.102,0.098,0.152,0.254,0.152,0.469v18.914c0,0.217-0.051,0.43-0.152,0.645
					c-0.102,0.215-0.222,0.363-0.361,0.443L372.994,304.338z"/>
			</g>
		</g>
		<g id="Exclamation_2_">
			<path style="fill:#FAFAFA;" d="M256.945,383.566l-4.017,2.134c-0.729,0.387-1.332,0.032-1.348-0.793l-0.555-29.523
				c-0.015-0.825,0.563-1.807,1.291-2.194l7.603-4.039c0.728-0.387,1.262-0.034,1.191,0.788l-2.717,31.438
				C258.322,382.199,257.674,383.179,256.945,383.566z"/>
			<path style="fill:#FAFAFA;" d="M254.415,399.344c-2.559,1.359-4-0.568-3.908-3.177c0.118-3.347,2.29-6.469,4.286-7.53
				c2.562-1.36,4,0.568,3.908,3.177C258.583,395.159,256.414,398.282,254.415,399.344z"/>
		</g>
		<g id="Lines_2_">
			<g>
				<g>
					<path style="fill:#455A64;" d="M213.196,359.627c-0.472,0-0.921-0.273-1.123-0.732c-0.272-0.619,0.009-1.343,0.629-1.615
						l12.647-5.563c0.62-0.273,1.343,0.01,1.615,0.629c0.272,0.619-0.009,1.343-0.629,1.615l-12.647,5.563
						C213.528,359.594,213.36,359.627,213.196,359.627z"/>
				</g>
				<g>
					<path style="fill:#455A64;" d="M227.348,341.209c-0.15,0-0.303-0.027-0.45-0.086l-14.066-5.56
						c-0.63-0.249-0.938-0.961-0.689-1.59c0.249-0.631,0.964-0.939,1.59-0.689l14.066,5.56c0.63,0.249,0.939,0.961,0.689,1.59
						C228.297,340.916,227.836,341.209,227.348,341.209z"/>
				</g>
				<g>
					<path style="fill:#455A64;" d="M233.656,328.791c-0.416,0-0.822-0.212-1.053-0.596l-6.943-11.587
						c-0.348-0.58-0.159-1.333,0.422-1.682c0.578-0.347,1.332-0.16,1.682,0.422l6.943,11.587c0.348,0.58,0.159,1.333-0.422,1.682
						C234.088,328.736,233.871,328.791,233.656,328.791z"/>
				</g>
			</g>
			<g>
				<g>
					<path style="fill:#455A64;" d="M396.085,321.304c-0.44,0-0.867-0.238-1.086-0.655c-0.315-0.6-0.084-1.341,0.515-1.655
						l12.69-6.666c0.601-0.315,1.341-0.084,1.655,0.515c0.315,0.6,0.084,1.341-0.515,1.655l-12.69,6.666
						C396.472,321.259,396.278,321.304,396.085,321.304z"/>
				</g>
				<g>
					<path style="fill:#455A64;" d="M409.547,338.091c-0.109,0-0.221-0.015-0.332-0.045l-14.537-4.072
						c-0.651-0.183-1.032-0.859-0.85-1.512c0.184-0.651,0.857-1.026,1.512-0.85l14.537,4.072c0.651,0.183,1.032,0.859,0.85,1.512
						C410.574,337.737,410.082,338.091,409.547,338.091z"/>
				</g>
				<g>
					<path style="fill:#455A64;" d="M396.52,357.429c-0.386,0-0.765-0.182-1.004-0.521l-7.492-10.656
						c-0.389-0.554-0.256-1.318,0.298-1.708c0.557-0.389,1.318-0.254,1.708,0.298l7.492,10.656c0.389,0.554,0.256,1.318-0.298,1.708
						C397.009,357.357,396.763,357.429,396.52,357.429z"/>
				</g>
			</g>
		</g>
	</g>
</g>
<g id="Speech_bubble_1">
	<g id="Alert_4_">
		<g id="Bubble_1_">
			<path style="fill:#27DEBF;" d="M182.627,22.27c4.379-2.487,10.405-2.106,17.06,1.736c13.388,7.729,24.241,26.527,24.241,41.986
				c0,7.723-2.71,13.147-7.091,15.68c-1.824,1.054-6.456,3.712-8.283,4.764c-4.384,2.525-10.435,2.159-17.12-1.701
				c-13.388-7.729-24.241-26.527-24.241-41.986c0-7.707,2.699-13.125,7.064-15.665C176.087,26.02,180.773,23.323,182.627,22.27z"/>
			<path style="opacity:0.15;" d="M182.627,22.27c4.379-2.487,10.405-2.106,17.06,1.736c13.388,7.729,24.241,26.527,24.241,41.986
				c0,7.723-2.71,13.147-7.091,15.68c-1.824,1.054-6.456,3.712-8.283,4.764c-4.384,2.525-10.435,2.159-17.12-1.701
				c-13.388-7.729-24.241-26.527-24.241-41.986c0-7.707,2.699-13.125,7.064-15.665C176.087,26.02,180.773,23.323,182.627,22.27z"/>
			<path style="fill:#27DEBF;" d="M204.904,86.771c1.008,1.711,2.825,3.952,6.061,6.007c3.037,1.936,6.631,2.321,9.097,2.294
				c0.159,0,0.305-0.04,0.424-0.106c0.491-0.292,8.129-4.681,8.249-4.747c0.504-0.292,0.583-1.087-0.013-1.432
				c-5.676-3.342-7.227-8.129-7.572-11.391L204.904,86.771z"/>
			<path style="opacity:0.25;" d="M204.904,86.771c1.008,1.711,2.825,3.952,6.061,6.007c3.037,1.936,6.631,2.321,9.097,2.294
				c0.159,0,0.305-0.04,0.424-0.106c0.491-0.292,8.129-4.681,8.249-4.747c0.504-0.292,0.583-1.087-0.013-1.432
				c-5.676-3.342-7.227-8.129-7.572-11.391L204.904,86.771z"/>
			
				<ellipse transform="matrix(0.866 -0.5 0.5 0.866 -2.7251 103.3192)" style="fill:#27DEBF;" cx="191.433" cy="56.745" rx="19.793" ry="34.282"/>
			<path style="fill:#27DEBF;" d="M212.98,78.515c0,0-1.918,9.484,7.489,15.019c0.725,0.427,0.44,1.535-0.401,1.542
				c-2.477,0.02-6.062-0.362-9.109-2.294c-6.443-4.086-7.245-8.916-7.245-8.916L212.98,78.515z"/>
		</g>
		<g id="Alert_5_">
			<g>
				<path style="fill:#FAFAFA;" d="M188.896,63.561l3.132,1.664c0.568,0.302,1.039,0.025,1.051-0.618l0.433-23.018
					c0.012-0.643-0.439-1.409-1.007-1.711l-5.928-3.149c-0.568-0.302-0.984-0.027-0.928,0.614l2.119,24.511
					C187.823,62.495,188.328,63.259,188.896,63.561z"/>
				<path style="fill:#FAFAFA;" d="M190.869,75.863c1.995,1.06,3.119-0.443,3.047-2.477c-0.092-2.61-1.786-5.044-3.342-5.871
					c-1.998-1.061-3.119,0.443-3.047,2.477C187.619,72.6,189.31,75.035,190.869,75.863z"/>
			</g>
		</g>
	</g>
</g>
<g id="Megaphone_1_">
	<g id="Megaphone_3_">
		<g>
			<circle style="fill:#455A64;" cx="435.371" cy="80.812" r="34.665"/>
			<path style="fill:#37474F;" d="M452.712,85.193c-6.301,3.638-22.65,13.077-39.117,22.584c5.952,4.813,13.525,7.7,21.776,7.7
				c19.145,0,34.665-15.52,34.665-34.665c0-7.18-2.183-13.851-5.922-19.384C467.209,70.27,465.287,77.932,452.712,85.193z"/>
		</g>
		<g id="XMLID_36_">
			<path id="XMLID_38_" style="fill:#37474F;" d="M428.56,104.742l-24.15-13.959c7.418,27.878,11.569,69.712,9.658,100.391
				l9.661,5.578C429.383,178.298,430.651,140.637,428.56,104.742z"/>
			<path id="XMLID_37_" style="fill:#455A64;" d="M457.922,104.507l-10.181,12.967l-0.256,37.946
				c-0.115,16.992-9.131,32.679-23.756,41.331h0c5.778-21.975,6.439-59.328,4.831-92.01L457.922,104.507z"/>
			<g>
				<path style="fill:#27DEBF;" d="M425.789,147.74c0.242,0.14,0.481,0.278,0.711,0.411c1.138,0.657,2.982,0.657,4.12,0l5.531-3.194
					c1.138-0.657,2.06-0.124,2.06,1.189v0.809c0,1.314-0.922,2.912-2.059,3.57l-5.619,3.251c-1.137,0.658-2.973,0.645-4.1-0.03
					l-0.663-0.397c-1.127-0.674-2.041-2.286-2.041-3.599v-0.822C423.728,147.615,424.651,147.083,425.789,147.74z"/>
				<path style="fill:#27DEBF;" d="M424.922,160.169c0.242,0.139,0.481,0.278,0.711,0.411c1.138,0.657,2.982,0.657,4.12,0
					l5.531-3.194c1.138-0.657,2.06-0.124,2.06,1.189v0.809c0,1.314-0.922,2.912-2.059,3.57l-5.619,3.251
					c-1.137,0.658-2.973,0.645-4.1-0.03l-0.663-0.397c-1.127-0.674-2.041-2.286-2.041-3.599v-0.821
					C422.862,160.045,423.785,159.513,424.922,160.169z"/>
				<path style="fill:#27DEBF;" d="M424.057,172.599c0.242,0.139,0.481,0.277,0.711,0.411c1.138,0.657,2.982,0.657,4.12,0
					l5.531-3.194c1.138-0.657,2.06-0.124,2.06,1.189v0.81c0,1.314-0.922,2.912-2.059,3.569l-5.619,3.251
					c-1.137,0.658-2.973,0.645-4.1-0.03l-0.663-0.397c-1.127-0.674-2.041-2.285-2.041-3.599v-0.822
					C421.996,172.475,422.919,171.942,424.057,172.599z"/>
			</g>
		</g>
		<g id="XMLID_24_">
			<g>
				<path id="XMLID_35_" style="fill:#27DEBF;" d="M390.194,59.958l0.012,0.012c4.638-2.664,10.881-2.557,17.814,0.832
					c0.725,0.345,1.463,0.737,2.212,1.165c0.88,0.511,1.736,1.046,2.592,1.641c1.415,0.963,2.795,2.022,4.139,3.187
					c2.462,2.105,4.792,4.507,6.957,7.135c5.803,7.064,10.37,15.698,12.784,24.319c1.213,4.353,1.879,8.693,1.879,12.843
					c0,8.812-3.021,15.079-7.932,18.124l17.458-10.061l-0.024-0.036c6.1-3.877,10.298-10.798,10.298-19.467
					c0-3.96-0.607-8.11-1.724-12.261c-2.366-8.812-7.004-17.672-12.939-24.89c-2.164-2.628-4.495-5.042-6.957-7.135
					c-1.344-1.165-2.723-2.236-4.139-3.187c-0.856-0.595-1.724-1.142-2.592-1.641c-0.737-0.428-1.486-0.809-2.236-1.153
					c-6.85-3.116-13.997-2.676-19.777,0.333l-0.012-0.012l-0.488,0.274c-0.202,0.119-0.416,0.238-0.618,0.369L390.194,59.958z"/>
				<path id="XMLID_34_" style="opacity:0.1;" d="M448.109,119.157l-0.024-0.036c6.1-3.877,10.298-10.798,10.298-19.467
					c0-3.96-0.607-8.11-1.724-12.261l-19.955,10.857c1.213,4.353,1.879,8.693,1.879,12.843c0,8.812-3.021,15.079-7.932,18.124
					L448.109,119.157z"/>
			</g>
			<g>
				<path id="XMLID_33_" style="fill:#27DEBF;" d="M381.87,78.344c0,18.088,12.689,40.076,28.351,49.115
					c7.873,4.555,15.008,4.959,20.145,1.926c0.095-0.048,0.19-0.107,0.285-0.167c4.912-3.044,7.932-9.311,7.932-18.124
					c0-18.088-12.689-40.076-28.351-49.126c-7.813-4.507-14.901-4.947-20.026-1.998C385.057,62.919,381.87,69.282,381.87,78.344z"/>
				<path id="XMLID_32_" style="opacity:0.2;" d="M381.87,78.344c0,18.088,12.689,40.076,28.351,49.115
					c7.873,4.555,15.008,4.959,20.145,1.926c0.095-0.048,0.19-0.107,0.285-0.167c4.912-3.044,7.932-9.311,7.932-18.124
					c0-18.088-12.689-40.076-28.351-49.126c-7.813-4.507-14.901-4.947-20.026-1.998C385.057,62.919,381.87,69.282,381.87,78.344z"/>
			</g>
			<g>
				<path id="XMLID_31_" style="fill:#27DEBF;" d="M294.925,73.665c0,0,28.608,14.682,53.04,57c4.798,8.311,8.594,16.24,11.593,23.6
					c12.271,30.101,11.251,50.835,11.251,50.835c8.529-20.881,19.128-42.503,36.814-59.058
					c10.946-10.247,21.744-18.184,21.744-18.184l-0.012-0.021c4.68-2.716,7.411-8.618,7.413-16.748
					c-0.002-5.354-1.154-11.061-3.206-16.66c-1.278-3.546-2.917-7.049-4.843-10.386c-4.971-8.61-11.837-16.126-19.398-20.493
					c-7.042-4.063-13.519-4.65-18.211-1.955l-0.012-0.021c0,0-12.272,5.383-26.62,9.739
					C341.298,78.351,317.272,76.719,294.925,73.665z"/>
				<path id="XMLID_30_" style="opacity:0.6;fill:#FFFFFF;" d="M294.925,73.665c0,0,28.608,14.682,53.04,57
					c4.798,8.311,8.594,16.24,11.593,23.6c12.271,30.101,11.251,50.835,11.251,50.835c8.529-20.881,19.128-42.503,36.814-59.058
					c10.946-10.247,21.744-18.184,21.744-18.184l-0.012-0.021c4.68-2.716,7.411-8.618,7.413-16.748
					c-0.002-5.354-1.154-11.061-3.206-16.66c-1.278-3.546-2.917-7.049-4.843-10.386c-4.971-8.61-11.837-16.126-19.398-20.493
					c-7.042-4.063-13.519-4.65-18.211-1.955l-0.012-0.021c0,0-12.272,5.383-26.62,9.739
					C341.298,78.351,317.272,76.719,294.925,73.665z"/>
				<path id="XMLID_29_" style="opacity:0.1;" d="M359.557,154.265c12.271,30.101,11.251,50.835,11.251,50.835
					c8.529-20.881,19.128-42.503,36.814-59.058c10.946-10.247,21.744-18.184,21.744-18.184l-0.012-0.021
					c4.68-2.716,7.411-8.618,7.413-16.748c-0.002-5.354-1.154-11.061-3.206-16.66C411.884,105.283,376.808,125.3,359.557,154.265z"
					/>
			</g>
			<g>
				<path id="XMLID_28_" style="fill:#27DEBF;" d="M241.031,114.484c0,18.861,5.803,39.506,15.472,58.569v0.012
					c12.392,24.414,31.086,46.213,52.016,58.295c37.27,21.513,67.476,4.067,67.476-38.959c0-9.847-1.581-20.169-4.46-30.503
					c-7.111-25.449-22.119-50.934-40.885-69.296c-2.64-2.592-5.351-5.03-8.134-7.314c-1.153-0.951-2.331-1.879-3.508-2.771h-0.012
					c-1.677-1.272-3.366-2.485-5.078-3.627c-1.784-1.189-3.579-2.319-5.399-3.365C271.249,54.012,241.031,71.446,241.031,114.484z"
					/>
				<path id="XMLID_27_" style="opacity:0.1;" d="M256.503,173.064c12.392,24.414,31.086,46.213,52.016,58.295
					c37.27,21.513,67.476,4.067,67.476-38.959c0-9.847-1.581-20.169-4.46-30.503h-0.012c-2.521,5.565-11.583,13.509-15.638,7.944
					c2.533,9.252,3.913,18.409,3.913,27.055c0,12.368-2.759,22.345-7.968,28.874c-4.448,5.566-10.56,8.396-18.159,8.384
					c-7.385,0.012-15.971-2.711-24.831-7.813c-17.802-10.275-34.166-28.743-45.773-49.661
					C263.068,176.68,260.749,178.642,256.503,173.064z"/>
			</g>
			<g>
				<path id="XMLID_26_" style="fill:#27DEBF;" d="M245.645,116.886c0,19.004,6.672,40.457,17.422,59.794
					c11.607,20.918,27.97,39.387,45.773,49.661c8.86,5.102,17.446,7.825,24.831,7.813c7.599,0.012,13.712-2.818,18.159-8.384
					c5.209-6.529,7.968-16.506,7.968-28.874c0-8.646-1.38-17.802-3.913-27.055c-0.951-3.496-2.069-7.005-3.342-10.501
					c-2.212-6.089-4.887-12.178-7.956-18.064c-0.63-1.213-1.273-2.414-1.927-3.603c-1.082-1.986-2.212-3.96-3.389-5.887
					c-3.996-6.624-8.479-12.927-13.307-18.718c-0.048-0.06-0.119-0.131-0.166-0.202c-3.223-3.853-6.588-7.468-10.073-10.81
					c-2.509-2.402-5.078-4.65-7.694-6.743c-1.094-0.88-2.2-1.724-3.318-2.545c-1.344-0.975-2.699-1.915-4.067-2.818
					c-1.332-0.868-2.676-1.689-4.02-2.474c-8.883-5.137-17.469-7.825-24.854-7.837C255.409,79.64,245.645,93.577,245.645,116.886z"
					/>
				<path id="XMLID_25_" style="opacity:0.4;" d="M245.645,116.886c0,19.004,6.672,40.457,17.422,59.794
					c11.607,20.918,27.97,39.387,45.773,49.661c8.86,5.102,17.446,7.825,24.831,7.813c7.599,0.012,13.712-2.818,18.159-8.384
					c5.209-6.529,7.968-16.506,7.968-28.874c0-8.646-1.38-17.802-3.913-27.055c-0.951-3.496-2.069-7.005-3.342-10.501
					c-2.212-6.089-4.887-12.178-7.956-18.064c-0.63-1.213-1.273-2.414-1.927-3.603c-1.082-1.986-2.212-3.96-3.389-5.887
					c-3.996-6.624-8.479-12.927-13.307-18.718c-0.048-0.06-0.119-0.131-0.166-0.202c-3.223-3.853-6.588-7.468-10.073-10.81
					c-2.509-2.402-5.078-4.65-7.694-6.743c-1.094-0.88-2.2-1.724-3.318-2.545c-1.344-0.975-2.699-1.915-4.067-2.818
					c-1.332-0.868-2.676-1.689-4.02-2.474c-8.883-5.137-17.469-7.825-24.854-7.837C255.409,79.64,245.645,93.577,245.645,116.886z"
					/>
			</g>
		</g>
		<g>
			<g id="XMLID_22_">
				<path id="XMLID_23_" style="fill:#37474F;" d="M294.451,133.269l23.004,40.708c9.661-5.115,21.422-11.483,36.297-11.147
					c-0.38-1.165-0.785-2.319-1.213-3.484c-2.212-6.089-4.887-12.178-7.956-18.064c-0.63-1.213-1.272-2.414-1.926-3.603
					c-1.082-1.986-2.212-3.96-3.389-5.887c-3.996-6.624-8.479-12.927-13.307-18.718c-0.048-0.059-0.119-0.131-0.167-0.202
					c-0.713-0.844-1.427-1.689-2.152-2.509C316.249,123.542,294.451,133.269,294.451,133.269z"/>
			</g>
			<g id="XMLID_20_">
				<path id="XMLID_21_" style="fill:#27DEBF;" d="M314.268,174.631c5.02,0,8.017-4.056,8.017-10.849v-0.208
					c0-10.677-7.522-23.706-16.768-29.044l-0.18-0.104c-2.465-1.423-4.888-2.176-7.006-2.176c-5.02,0-8.016,4.055-8.016,10.849
					v0.208c0,10.677,7.522,23.706,16.768,29.044l0.18,0.104C309.728,173.879,312.15,174.631,314.268,174.631L314.268,174.631z"/>
			</g>
		</g>
	</g>
</g>
<g id="Character">
	<g id="Character_1_">
		<g id="Bottom_1_">
			<g>
				<g id="XMLID_17_">
					<path id="XMLID_18_" style="fill:#FFA8A7;" d="M150.289,361.023c0.323-4.223,3.248-46.801,3.248-46.801l-20.531,15.121
						c2.996,24.409,4.218,30.949,4.291,35.015l0,0c-0.032,0.095-0.115,0.44-0.11,1.041c0.018,4.829,5.467,7.433,9.718,10.651
						c1.679,1.271,6.562,5.026,11.497,7.505c3.088,1.552,9.36,1.693,10.137-0.294c-5.173-3.95-11.16-8.266-15.274-12.777
						C151.3,368.332,149.902,366.091,150.289,361.023z"/>
				</g>
				<g>
					<path style="fill:#263238;" d="M177.357,388.459c0.265,0,0.665,2.923-0.775,4.166c-1.663,1.434-6.545,3.789-12.994,2.954
						c-6.45-0.835-9.942-2.831-12.523-4.991c-2.581-2.16-6.198-5.207-9.115-5.851c-2.71-0.598-5.653-1.826-6.52-2.664
						c-0.867-0.838-0.746-4.562-0.746-4.562L177.357,388.459z"/>
					<path id="XMLID_16_" style="fill:#37474F;" d="M137.255,363.178c0,0-0.809,0.009-0.976,0.871
						c-0.199,1.026-0.413,4.011-0.84,5.696c-0.592,2.341-0.99,7.14-0.635,9.048c0.355,1.908,4.773,3.235,7.596,4.31
						c2.884,1.099,6.219,3.363,9.147,5.777c3.03,2.499,9.406,5.1,13.609,5.069c4.974-0.036,10.574-1.646,11.857-3.952
						c1.588-2.853,0.343-4.507-7.031-7.925c-1.396-0.647-6.3-3.55-7.971-4.602c-4.522-2.846-9.001-6.809-11.081-11.845
						c-0.243-0.589-0.498-1.241-1.06-1.54c-0.431-0.23-0.95-0.197-1.434-0.129c-1.229,0.172-2.429,0.536-3.549,1.07
						c-0.99,0.472-2.394,1.021-2.373,2.288c0.007,0.441,0.135,0.871,0.278,1.289c0.088,0.259,0.158,0.603-0.069,0.756
						c-0.214,0.144-0.498-0.02-0.69-0.193c-0.772-0.692-1.338-1.578-1.988-2.386c-0.348-0.433-0.728-0.848-1.167-1.189
						c-0.399-0.311-0.909-0.465-1.263-0.818C137.169,364.326,137.276,363.772,137.255,363.178z"/>
					<path style="fill:#455A64;" d="M151.547,388.881c-1.286-1.061-2.652-2.086-4.023-3.003v-0.007c0,0,8.673,5.273,12.177,2.88
						c2.258-1.541,1.184-3.415,1.13-4.014c-0.054-0.599,5.515-3.162,7.708-3.423v0c0.611,0.338,1.123,0.61,1.444,0.759
						c7.374,3.418,8.619,5.071,7.031,7.925c-1.283,2.306-5.34,4.105-11.768,4.105C161.041,394.102,154.577,391.38,151.547,388.881z"
						/>
					<path style="fill:#263238;" d="M160.225,382.992c4.586,1.834,2.629,2.69,1.345,2.874c-1.284,0.183-9.003-4.325-13.71-8.05
						c-4.91-3.885-8.006-8.132-9.83-9.559c-0.68-0.532-1.412-1.186-2.063-1.796c0.121-1.009,0.219-1.929,0.312-2.411
						c0.167-0.862,0.976-0.871,0.976-0.871c0.021,0.595-0.086,1.148,0.362,1.595c0.354,0.353,0.864,0.507,1.263,0.818
						c0.439,0.342,0.819,0.757,1.167,1.189c0.65,0.808,1.216,1.694,1.988,2.386C146.04,374.249,155.639,381.158,160.225,382.992z"/>
					<g>
						<g>
							<path style="fill:#F0F0F0;" d="M161.244,385.192c-0.101,0-0.203-0.033-0.287-0.103c-0.194-0.158-0.223-0.444-0.064-0.638
								c1.295-1.585,5.027-3.683,8.401-3.313c0.25,0.026,0.43,0.251,0.402,0.5c-0.026,0.248-0.225,0.422-0.5,0.403
								c-3.15-0.339-6.576,1.729-7.601,2.985C161.507,385.135,161.376,385.192,161.244,385.192z"/>
						</g>
						<g>
							<path style="fill:#F0F0F0;" d="M157.244,382.729c-0.101,0-0.203-0.033-0.287-0.103c-0.194-0.158-0.222-0.444-0.064-0.638
								c1.293-1.584,5.024-3.68,8.401-3.312c0.25,0.026,0.43,0.251,0.403,0.5c-0.026,0.249-0.244,0.429-0.5,0.402
								c-3.152-0.334-6.576,1.728-7.601,2.984C157.507,382.672,157.376,382.729,157.244,382.729z"/>
						</g>
						<g>
							<path style="fill:#F0F0F0;" d="M153.243,380.398c-0.101,0-0.202-0.033-0.287-0.103c-0.194-0.158-0.222-0.444-0.064-0.639
								c1.295-1.585,5.027-3.686,8.401-3.311c0.25,0.026,0.43,0.251,0.402,0.5c-0.026,0.248-0.24,0.429-0.5,0.402
								c-3.152-0.339-6.576,1.728-7.601,2.984C153.505,380.341,153.375,380.398,153.243,380.398z"/>
						</g>
						<g>
							<path style="fill:#F0F0F0;" d="M149.536,377.735c-0.101,0-0.203-0.033-0.287-0.103c-0.194-0.158-0.222-0.444-0.064-0.638
								c1.294-1.585,5.039-3.682,8.401-3.311c0.25,0.026,0.43,0.251,0.403,0.5c-0.026,0.248-0.242,0.427-0.5,0.402
								c-3.148-0.336-6.576,1.728-7.601,2.984C149.798,377.678,149.668,377.735,149.536,377.735z"/>
						</g>
						<g>
							<path style="fill:#F0F0F0;" d="M145.904,375.071c-0.099,0-0.198-0.032-0.282-0.099c-0.197-0.155-0.229-0.441-0.074-0.637
								c1.779-2.247,5.801-3.726,9.174-3.357c0.25,0.027,0.43,0.251,0.402,0.5c-0.026,0.249-0.243,0.422-0.499,0.402
								c-3.037-0.33-6.787,1.027-8.366,3.019C146.171,375.013,146.037,375.071,145.904,375.071z"/>
						</g>
					</g>
				</g>
			</g>
			<g>
				<g id="XMLID_14_">
					<path id="XMLID_15_" style="fill:#FFA8A7;" d="M101.477,327.131l-18.274-7.746c-3.567,13.198-5.983,31.265-9.264,43.668
						c-0.617,2.335-4.677,17.978-5.206,23c-0.795,7.545,7.988,9.079,9.699,4.928c1.712-4.151,6.679-22.228,7.261-24.108
						C87.941,358.962,101.187,327.783,101.477,327.131z"/>
				</g>
				<g>
					<path style="fill:#263238;" d="M80.757,394.906c-1.061,4.259-2.267,6.989-4.271,9.227c-2.003,2.238-5.035,2.488-7.815,1.2
						c-2.78-1.289-6.147-3.969-6.285-7.842c-0.138-3.872,0.511-6.387,1.925-10.256L80.757,394.906z"/>
					<path id="XMLID_13_" style="fill:#37474F;" d="M74.332,361.535c-1.221-0.132-2.664,5.583-4.447,11.243
						c-1.911,6.066-3.569,8.284-5.191,13.247c-1.853,5.671-2.036,8.325-0.661,12.223c1.375,3.898,7.937,8.703,12.438,4.338
						c3.669-3.559,4.645-8.087,5.474-13.941c0.856-6.052,2.092-10.425,3.195-14.933c1.053-4.309,2.044-7.841,1.09-8.522
						c-0.201,0.624-0.432,1.42-0.635,2.032c-0.156,0.469-0.72,2.803-1.398,2.699c0.042-0.567,0.152-1.083,0.295-1.642
						c0.125-0.486,0.185-1.031-0.065-1.466c-0.252-0.439-0.753-0.659-1.223-0.848c-1.14-0.457-2.868-1.413-4.051-1.748
						c-0.589-0.167-1.185-0.309-1.787-0.415c-0.489-0.086-1.749-0.153-2.243-0.069c-0.303,0.051-0.604,0.204-0.762,0.468
						c-0.117,0.195-0.146,0.428-0.188,0.652c-0.076,0.402-0.202,0.794-0.375,1.165c-0.076,0.163-0.234,0.351-0.399,0.277
						c-0.133-0.06-0.156-0.244-0.13-0.388c0.127-0.702,0.313-1.196,0.498-2.006c0.086-0.374,0.244-0.877,0.321-1.254
						C74.163,362.274,74.237,361.902,74.332,361.535z"/>
					<path style="fill:#455A64;" d="M65.278,384.423c-0.275,0.817-2.029,6.234-0.706,7.52c1.433,1.391,3.152-2.805,3.152-2.805
						s4.059-0.453,9.186,3.043c-0.456,0.846-0.153,3.979,1.498,3.641c1.64-0.337,3.439-6.592,3.463-6.673
						c-0.815,5.609-1.838,9.982-5.4,13.437c-4.501,4.365-11.063-0.439-12.437-4.338c-1.375-3.898-1.192-6.553,0.661-12.223
						C64.88,385.457,65.076,384.928,65.278,384.423z"/>
					<path style="fill:#263238;" d="M68.092,389.593c-0.42,2.097-2.361,0.997-1.893-1.988c0.468-2.984,2.74-9.719,3.686-14.828
						c1.783-5.659,3.226-11.374,4.447-11.243c-0.018,0.07-0.03,0.142-0.047,0.213l-0.712,2.911
						c-0.115,0.421-0.223,0.793-0.305,1.246c-0.837,4.28-2.322,12.45-3.429,16.299C68.733,386.054,68.512,387.496,68.092,389.593z"
						/>
					<path style="fill:#263238;" d="M76.274,392.001c0.784-1.99,1.379-3.322,2.533-7.157c1.146-3.807,4.3-11.229,5.918-15.308
						c0.429-0.662,0.756-1.975,0.869-2.314c0.19-0.571,0.403-1.298,0.594-1.9c0.016-0.042,0.032-0.083,0.047-0.126
						c0.685,0.505,0.295,2.839-0.373,5.727c-0.467,1.653-1.481,3.408-2.335,5.854c-1.972,4.806-3.364,11.86-4.587,14.622
						C77.717,394.161,75.491,393.991,76.274,392.001z"/>
					<g>
						<g>
							<path style="fill:#F0F0F0;" d="M76.997,392.373c-0.055-0.016-0.106-0.043-0.154-0.078c-0.038-0.032-3.985-3.085-9.085-2.704
								c-0.251,0.017-0.468-0.171-0.486-0.419c-0.019-0.25,0.169-0.467,0.419-0.486c5.457-0.408,9.542,2.761,9.714,2.897
								c0.196,0.154,0.231,0.44,0.075,0.637C77.363,392.368,77.169,392.424,76.997,392.373z"/>
						</g>
						<g>
							<path style="fill:#F0F0F0;" d="M78.86,388.001c-0.049-0.014-0.096-0.037-0.14-0.069c-0.044-0.032-4.52-3.258-10.173-3.023
								c-0.249,0.006-0.461-0.185-0.472-0.435c-0.01-0.251,0.185-0.462,0.436-0.472c5.979-0.244,10.554,3.058,10.747,3.198
								c0.202,0.149,0.246,0.433,0.098,0.635C79.238,387.993,79.038,388.054,78.86,388.001z"/>
						</g>
						<g>
							<path style="fill:#F0F0F0;" d="M69.653,380.631c-0.165-0.049-0.296-0.19-0.322-0.371c-0.034-0.249,0.138-0.479,0.386-0.514
								c5.737-0.812,10.549,2.933,10.752,3.093c0.197,0.155,0.231,0.44,0.074,0.637c-0.156,0.196-0.444,0.224-0.637,0.075
								c-0.046-0.035-4.722-3.667-10.061-2.905C69.779,380.656,69.714,380.65,69.653,380.631z"/>
						</g>
						<g>
							<path style="fill:#F0F0F0;" d="M70.053,376.604c-0.162-0.048-0.291-0.185-0.32-0.363c-0.039-0.249,0.129-0.482,0.376-0.52
								c6.331-1.008,11.469,2.933,11.656,3.101c0.186,0.168,0.202,0.455,0.034,0.641c-0.168,0.187-0.46,0.202-0.641,0.034
								c-0.041-0.038-5.013-3.816-10.905-2.88C70.184,376.628,70.116,376.623,70.053,376.604z"/>
						</g>
						<g>
							<path style="fill:#EBEBEB;" d="M71.283,372.083c-0.16-0.047-0.288-0.182-0.319-0.357c-0.043-0.247,0.122-0.482,0.369-0.525
								c5.95-1.035,11.508,3.063,11.712,3.24c0.191,0.162,0.212,0.449,0.049,0.639c-0.162,0.191-0.449,0.217-0.639,0.049
								c-0.048-0.04-5.44-3.997-10.965-3.035C71.418,372.107,71.348,372.102,71.283,372.083z"/>
						</g>
					</g>
				</g>
			</g>
			<path id="XMLID_12_" style="fill:#37474F;" d="M104.331,191.299c-4.005,8.917-7.675,13.414-9.626,32.919
				c-3.477,34.769-5.694,60.612-5.694,60.612c-0.8,3.617-2.965,12.135-6.514,26.673c-3.268,13.382-6.888,40.266-6.888,40.266
				s9.034,2.728,17.533-0.623c5.085-12.799,17.616-44.399,21.856-59.873c4.171-15.221,11.251-38.392,11.251-38.392l4.971,35.187
				c0,0-1.162,14.063-0.781,22.361c0.442,9.651,4.651,42.518,4.651,42.518s9.233,4.607,16.565-0.708c0,0,4.2-54.66,4.405-66.275
				c0.401-22.782,2.091-70.778-1.612-94.665H104.331z"/>
			<path style="fill:#455A64;" d="M76.49,345.521c2.979,2.778,11.711,6.46,16.651,5.625l-1.935,5.516c0,0-1.582,1.225-7.863-0.359
				c-6.282-1.585-7.735-4.534-7.735-4.534L76.49,345.521z"/>
			<path style="fill:#455A64;" d="M134.601,349.071c3.683,1.74,12.842,2.299,17.295,0l-0.104,5.622c0,0-1.536,2.098-8.015,2.143
				c-6.505,0.046-8.811-1.969-8.811-1.969L134.601,349.071z"/>
			<path id="XMLID_11_" style="fill:#263238;" d="M126.249,252.881l4.186-25.299c0,0,15.143-1.632,20.7-6.856
				c0,0-7.041,9.711-17.32,11.195l-4.54,20.96l1.902,34.887L126.249,252.881z"/>
		</g>
		<g id="Top_1_">
			<path style="fill:#F28F8F;" d="M146.975,126.782c6.867-0.143,8.013,1.16,11.018,3.081c2.472,1.58,33.033,27.867,33.033,27.867
				l-7.727,10.997c-7.219-1.992-12.334-5.103-19.049-10.009c-6.716-4.906-14.015-9.931-14.015-9.931L146.975,126.782z"/>
			<path style="fill:#37474F;" d="M128.408,120.685c-0.301-0.491-0.645-0.955-1.038-1.38c-2.77-2.995-7.558-2.639-11.214-1.787
				c-3.294,0.767-6.465,2.088-9.842,2.485c-3.156,0.37-6.333-0.619-8.829-2.579c-0.852-0.669-1.828-1.503-2.874-1.222
				c-0.825,0.222-1.312,1.069-1.59,1.877c-0.601,1.748-0.639,3.684-0.107,5.454c-2.245-0.746-4.193-2.349-5.355-4.409
				c-0.334-0.592-0.649-1.262-1.261-1.556c-0.683-0.327-1.539-0.047-2.071,0.492c-0.532,0.539-0.8,1.282-0.988,2.016
				c-1.289,5.006,0.276,11.438,5.743,14.789c-1.887,0.245-3.163-0.287-4.002-0.483c-0.69-0.161-1.478,0.066-1.958,0.587
				c-0.642,0.695-0.578,1.783-0.331,2.697c0.726,2.69,2.669,4.944,5.007,6.461c10.319,6.694,27.312,4.795,36.321-3.462
				c4.333-3.971,6.889-10.057,5.884-15.848C129.65,123.368,129.172,121.935,128.408,120.685z"/>
			<g>
				<path id="XMLID_10_" style="fill:#27DEBF;" d="M154.739,165.825c-0.537,5.969-0.291,25.474-0.291,25.474
					c-18.864,11.534-50.116,0-50.116,0c1.793-4.418,4.597-8.86,4.433-13.066l-4.045-22.963c0,0,7.702-11.519,6.81-28.103
					l13.464-1.397l12.853,0.363l9.129,0.648c2.719,2.543,7.647,7.676,11.51,14.983C163.191,150.667,161.607,158.63,154.739,165.825z
					"/>
			</g>
			<g id="XMLID_1_">
				<path style="fill:#37474F;" d="M139.772,117.072c1.615-3.163,3.599-5.021,7.543-9.315c6.129-6.674,5.705-20.694,0.076-24.589
					c-3.712-4.905-9.712-8.098-15.601-9.54c-5.223-1.279-10.896,1.016-15.353,3.716c-3.749,2.271-7.035,5.26-9.868,8.605
					c-1.438,1.697-2.79,3.541-3.409,5.678c-0.242,0.835-0.36,1.767,0.019,2.55c0.432,0.893,1.435,1.398,2.421,1.501
					c0.987,0.103,1.974-0.129,2.939-0.359c-0.662,0.158,1.312,3.375,1.765,3.617c1.213,0.651,2.907,0.823,4.254,0.752
					c0.975-0.052,1.942-0.197,2.915-0.267c0.743-0.053,1.922-0.246,2.561,0.214c0.605,0.436,1.154,1.193,1.7,1.719
					c0.668,0.644,1.337,1.287,2.005,1.931c2.585,2.489,5.17,4.978,7.755,7.467C134.252,113.408,137.014,114.416,139.772,117.072z"/>
				<g id="XMLID_8_">
					<path id="XMLID_9_" style="fill:#FFA8A7;" d="M149.286,98.658c-3.609-2.571-6.382-0.493-7.908,1.929
						c-0.363,0.577-0.664,1.242-1.251,1.588c-0.424,0.251-0.966,0.291-1.423,0.107c-1.301-0.524-1.661-2.307-1.922-3.499
						c-0.377-1.72-0.469-3.503-0.267-5.253c-0.712,0.647-1.65,1.067-2.612,1.069c-0.962,0.003-1.936-0.439-2.496-1.222
						c-0.721-1.009-0.673-2.352-0.716-3.591c-0.05-1.438-0.1-3.527-0.809-4.818c-0.542-0.988-2.087-1.676-3.052-2.158
						c-1.873-0.937-3.99-2.116-6.109-2.027c-1.214,0.051-2.434-0.119-3.655-0.069c-1.017,0.042-2.737-0.062-3.655,0.408
						c-3.001,1.535-6.077,4.577-5.428,19.871c0.507,11.949,3.752,17.69,5.803,18.74c2.051,1.05,4.564,1.291,8.555,0.874l0,6.798
						c-0.073,0.416,6.733,10.372,16.519,12.737c3.045-3.33,4.159-7.829,0.79-13.675l0.222-17.265c0,0,3.586,3.144,7.739-0.063
						C151.041,106.493,152.235,100.758,149.286,98.658z"/>
					<path style="fill:#F28F8F;" d="M147.65,100.447c-0.533-0.476-1.269-0.699-1.977-0.658c-1.346,0.079-2.576,0.94-2.86,2.301
						c-0.062,0.296,0.158,0.548,0.439,0.616c0.333,0.081,0.676,0.084,1.01,0.155c0.298,0.064,0.379,0.268,0.415,0.575
						c0.045,0.384-0.1,0.759-0.399,1.006c-0.328,0.273-0.643,0.319-1.049,0.277c-0.397-0.04-0.742,0.016-0.955,0.388
						c-0.128,0.223-0.202,0.514-0.268,0.761c-0.048,0.179-0.067,0.37-0.051,0.555c0.067,0.775,0.519,1.395,1.376,1.658
						c0.405,0.124,0.818,0.16,1.245,0.103c0.38-0.051,0.822-0.197,1.09-0.577c-0.648,0.272-1.123,0.276-1.82,0.053
						c-0.346-0.111-0.773-0.413-0.947-0.714c-0.243-0.421-0.228-1.097,0.222-1.378c0.033-0.021,0.243,0.006,0.355,0.018
						c0.197,0.021,0.386,0.036,0.582-0.007c0.397-0.087,0.775-0.303,1.057-0.593c0.563-0.579,0.629-1.542,0.226-2.23
						c-0.342-0.587-0.895-0.688-1.472-0.776c0.381-0.823,1.203-1.332,2.15-1.353c0.513-0.011,1.039,0.092,1.476,0.371
						c0.203,0.13,0.429,0.329,0.57,0.526c0.144,0.202,0.244,0.323,0.348,0.592C148.527,101.536,148.06,100.813,147.65,100.447z"/>
				</g>
				<path style="fill:#37474F;" d="M102.905,82.373c0.261-0.59,0.552-1.168,0.871-1.729c4.976-8.767,15.871-11.966,25.395-11.172
					c11.872,0.99,19.54,7.32,18.312,15.507c-2.033,0.125-4.065,0.249-6.098,0.374c-1.259,0.077-2.529-0.129-3.755,0.062
					c-2.004,0.313-3.856,1.271-5.546,2.354c-2.17,1.389-4.199,3.035-6.558,4.07c-1.08,0.474-2.536,0.73-3.28-0.186
					c-0.747-0.92-0.196-2.28,0.375-3.319c-2.017,1.709-4.485,2.881-7.084,3.363c-1.17,0.217-2.577,0.21-3.311-0.726
					c-0.78-0.995-0.355-2.445,0.183-3.589c-2.004,1.24-4.432,1.779-6.772,1.503c-1.321-0.156-2.744-0.671-3.349-1.856
					c-0.56-1.097-0.25-2.427,0.18-3.582C102.603,83.085,102.749,82.726,102.905,82.373z"/>
				<g>
					<path id="XMLID_7_" style="fill:#263238;" d="M125.163,99.167c-0.014,0.967,0.77,1.784,1.749,1.824
						c0.98,0.04,1.785-0.712,1.798-1.68c0.013-0.967-0.77-1.784-1.75-1.824C125.981,97.448,125.177,98.2,125.163,99.167z"/>
					<path id="XMLID_6_" style="fill:#263238;" d="M109.448,96.484l3.004-2.959c-0.792-0.867-2.107-0.908-2.937-0.09
						C108.687,94.252,108.656,95.618,109.448,96.484z"/>
					<path id="XMLID_5_" style="fill:#263238;" d="M110.982,99.395c-0.014,0.967,0.769,1.783,1.748,1.824
						c0.979,0.04,1.783-0.712,1.796-1.679c0.014-0.968-0.769-1.784-1.747-1.824C111.8,97.676,110.995,98.428,110.982,99.395z"/>
					<path id="XMLID_4_" style="fill:#263238;" d="M126.546,93.195l3.476,2.387c0.701-0.942,0.491-2.241-0.469-2.9
						C128.593,92.023,127.246,92.252,126.546,93.195z"/>
					<polygon id="XMLID_3_" style="fill:#F28F8F;" points="120.36,95.397 120.116,107.44 114.13,106.164 					"/>
					<path id="XMLID_2_" style="fill:#F28F8F;" d="M122.342,120.607c4.209-0.625,13.133-2.876,14.675-6.181
						c0,0-0.738,2.692-3.43,4.729c-2.693,2.036-11.245,3.857-11.245,3.857V120.607z"/>
					<g>
						<path style="fill:#B16668;" d="M126.775,111.2c0,1.226-0.994,2.22-2.22,2.22c-1.226,0-2.22-0.994-2.22-2.22
							c0-1.226,0.994-2.22,2.22-2.22C125.781,108.98,126.775,109.974,126.775,111.2z"/>
						<path style="fill:#F28F8F;" d="M124.271,113.146c0,0.085,0.016,0.166,0.025,0.248c0.086,0.01,0.171,0.026,0.259,0.026
							c1.226,0,2.22-0.994,2.22-2.22c0-0.085-0.016-0.166-0.025-0.248c-0.086-0.01-0.171-0.026-0.259-0.026
							C125.265,110.926,124.271,111.92,124.271,113.146z"/>
					</g>
				</g>
			</g>
			<g>
				<g>
					<g>
						<path style="fill:#FFA8A7;" d="M160.151,99.678c-0.888-1.179-2.144-2.689-2.496-3.21c-0.7-1.037-2.17,0.463-1.831,1.985
							c0.339,1.522,1.682,3.882,2.433,5.154c0.752,1.272,1.314,5.848,0.925,8.558c-0.2,1.39-1.088,2.591-2.145,1.973
							c-1.057-0.618-2.4-3.358-3.711-4.014c-1.311-0.657-2.756-0.322-3.051,0.429c-0.295,0.751,1.055,2.035,1.637,3.538
							c0.582,1.503,0.994,5.777,2.04,7.666c1.046,1.889,4.315,4.883,4.315,4.883s3.647-1.763,6.139-5.68
							C166.899,117.041,166.172,105.361,160.151,99.678z"/>
					</g>
					<path style="fill:#F28F8F;" d="M164.994,114.221c0.152-0.536,0.399-1.232,0.616-2.092c-0.465-4.445-2.165-9.343-5.458-12.451
						c-0.596-0.792-1.353-1.726-1.896-2.417c0.06,1.264,0.62,2.594,1.145,3.487c1.111,1.889,1.608,3.255,1.949,4.388
						c0.287,0.953,0.64,2.967,1.07,4.755c0.437,1.819,0.689,6.557,0.689,6.557S164.341,116.515,164.994,114.221z"/>
					<path style="fill:#FFA8A7;" d="M163.031,96.975c-2.056-2.579-2.573-3.18-3-3.117c-1.561,0.231-1.226,4.435-0.114,6.324
						c1.112,1.889,1.81,3.68,2.105,5.188c0.191,0.977,0.438,3.238,0.399,4.521c0,0-1.397,6.426-1.842,8.38c0,0,4.49-2.4,5.143-4.694
						C166.373,111.283,168.772,106.161,163.031,96.975z"/>
					<path style="fill:#F28F8F;" d="M166.045,112.524c0.817-2.656,1.975-7.566-3.014-15.549c-0.422-0.529-0.58-0.728-0.885-1.102
						c-0.411,0.575-0.492,1.364-0.376,2.205c0.255,1.852,1.807,4.633,2.126,6.014c0.319,1.381,0.511,2.532,0.736,4.666
						L166.045,112.524z"/>
					<path style="fill:#FFA8A7;" d="M166.173,98.38c-1.296-2.068-1.511-3.269-2.026-3.657s-1.986,1.28-1.731,3.132
						c0.255,1.852,1.997,6.389,1.997,6.389c0.444,1.888,0.357,6.736-0.337,8.322c0,0,2.875,0.557,3.966-1.419
						C169.133,109.171,169.036,103.853,166.173,98.38z"/>
					<path style="fill:#F28F8F;" d="M166.173,98.38c-0.218-0.347-0.396-0.661-0.56-0.96l-0.002,0.001
						c-0.827,0.888-1.026,1.56-0.446,3.731c0.686,2.57,1.771,5.04,1.648,7.078c0,0,0.46-0.523,1.854-1.097
						C168.562,104.683,167.836,101.56,166.173,98.38z"/>
					<path style="fill:#FFA8A7;" d="M158.267,126.639c-2.634-3.151-0.222-5.945,0.975-7.895c1.648-2.686,5.629-6.854,6.419-8.157
						c0.667-1.1,0.993-1.471,1.245-2.789c0.263-1.375-0.417-3.403-0.872-5.261c-0.995-4.061-0.34-4.803,0.473-4.989
						c0.813-0.186,1.762,2.62,2.427,4.029c0.665,1.409,2.586,5.791,2.523,7.419c-0.064,1.628-0.583,6.198-1.613,9.859
						c-0.78,2.772,4.87,9.883,4.87,9.883l-11.393,7.869C163.32,136.606,160.66,130.288,158.267,126.639z"/>
					<path style="fill:#F28F8F;" d="M165.314,110.698c-1.445,2.211-2.692,3.187-4.354,4.806c-1.662,1.618-3.082,4.422-3.076,6.11
						c0.345-1.746,1.793-3.916,3.703-5.645C164.236,113.571,164.631,112.398,165.314,110.698z"/>
				</g>
				<path style="fill:#FFA8A7;" d="M161.181,131.93c2.697,6.237,8.653,23.108,10.846,27.289c3.369,6.424,12.018,11.378,15.385,9.507
					c3.368-1.871,4.784-9.549,2.629-16.414c-2.535-8.073-15.513-22.988-18.359-28.018L161.181,131.93z"/>
			</g>
			<path style="fill:#FFA8A7;" d="M111.529,127.167c-12.394,0-15.743,5.521-19.489,14.642c-3.746,9.121-12.053,33.39-12.053,33.39
				c-0.489,1.14-3.744,6.085-6.392,13.676c-1.973,5.655-8.265,28.242-10.708,29.382c-2.443,1.14-13.176,1.02-17.248,2.076
				c-4.072,1.056-9.377,4.71-12.167,7.029c-0.444,1.377,1.481,1.745,2.842,1.554c2.507-0.351,6.409-2.404,9.154-2.51
				c4.235-0.163,9.435,0.425,10.575,0.751c1.14,0.326,0.796,1.246-2.932,3.258c-3.728,2.012-4.398,4.235-4.072,5.375
				s1.792,0,4.398-1.14c2.606-1.14,7.167-2.443,11.239-4.235c4.072-1.792,6.515-1.955,8.795-4.561
				c2.28-2.606,2.934-5.317,5.703-10.692s8.562-14.554,10.913-19.138c3.257-6.352,4.672-11.527,8.096-18.45
				c4.061-8.21,12.674-26.219,12.674-26.219S116.196,135.328,111.529,127.167z"/>
		</g>
		<g>
			<g>
				<path style="fill:#E0E0E0;" d="M171.273,94.414c-0.125,0-0.251-0.05-0.343-0.148c-0.178-0.19-0.169-0.487,0.02-0.666
					l6.844-6.433c0.19-0.178,0.487-0.168,0.666,0.02c0.178,0.19,0.169,0.487-0.02,0.666l-6.844,6.433
					C171.505,94.372,171.389,94.414,171.273,94.414z"/>
			</g>
			<g>
				<path style="fill:#E0E0E0;" d="M172.9,97.881c-0.205,0-0.393-0.134-0.453-0.341c-0.071-0.25,0.072-0.51,0.323-0.582l9.026-2.596
					c0.25-0.068,0.511,0.073,0.582,0.323c0.071,0.25-0.072,0.51-0.323,0.582l-9.026,2.596
					C172.986,97.874,172.943,97.881,172.9,97.881z"/>
			</g>
			<g>
				<path style="fill:#E0E0E0;" d="M183.091,103.163c-0.02,0-0.039-0.001-0.059-0.004l-9.319-1.17
					c-0.258-0.033-0.441-0.268-0.409-0.526c0.033-0.259,0.278-0.438,0.526-0.409l9.319,1.17c0.258,0.033,0.441,0.268,0.409,0.526
					C183.527,102.989,183.324,103.163,183.091,103.163z"/>
			</g>
		</g>
	</g>
</g>
</svg>
